<svg xmlns="http://www.w3.org/2000/svg" viewBox="0 0 128 128" role="img" aria-labelledby="title desc">
  <title id="title">Research OS enso mark</title>
  <desc id="desc">A rough sumi ink circle used as the Research OS brand mark.</desc>
  <path d="M89.4 22.7c-15.8-8.5-37-6.4-52.1 5.1C20.5 40.6 13.8 65.1 23.5 84.4c9.3 18.6 31.5 29.2 51.6 24.2 20.5-5.1 34.9-24.7 34.2-45.9-.4-13.3-6.6-26.4-17.3-34.5" fill="none" stroke="#f6efe2" stroke-width="14" stroke-linecap="round" opacity=".96"/>
  <path d="M36.7 27.8c15.6-10.4 37.1-11.2 52.5-1.2 18.7 12.1 25 38.4 14.1 58.6-10.2 18.9-34.1 28.6-54.1 21.6-15.8-5.5-27.8-19.1-30.2-35.7-2.4-16.7 4.8-32.8 17.7-43.3Z" fill="none" stroke="#f6efe2" stroke-width="4" stroke-linecap="round" opacity=".58"/>
  <rect x="93" y="82" width="22" height="22" rx="2" fill="#d74b35"/>
  <path d="M99 88h10M99 95h10M104 88v10" stroke="#f6efe2" stroke-width="1.6" stroke-linecap="round"/>
</svg>
