<svg xmlns="http://www.w3.org/2000/svg" viewBox="0 0 640 420" role="img" aria-labelledby="title desc">
  <title id="title">Sakura branch wash</title>
  <desc id="desc">A pale sakura branch and ink wash decorative asset.</desc>
  <g fill="none" stroke-linecap="round" stroke-linejoin="round">
    <path d="M106 350c66-48 109-99 152-159 42-58 86-97 155-116 47-13 88-34 116-66" stroke="#827361" stroke-width="4" opacity=".32"/>
    <path d="M271 181c-16-31-24-63-22-96M374 92c11 28 24 50 53 67M186 274c-34-11-61-9-99 11" stroke="#827361" stroke-width="2" opacity=".22"/>
    <path d="M40 365c101-25 182-18 265 25 77 39 161 34 263-37" stroke="#827361" stroke-width="9" opacity=".1"/>
    <path d="M33 372c111-18 193-7 277 35 78 39 174 21 285-56" stroke="#223d5b" stroke-width="3" opacity=".09"/>
  </g>
  <g fill="#f1c1bb" stroke="#cb7a70" stroke-width="1.2" opacity=".68">
    <path d="M374 74c8-17 26-9 19 8 17-7 26 11 8 19 17 8 9 26-8 19 7 17-11 26-19 8-8 18-26 9-19-8-17 7-26-11-8-19-18-8-9-26 8-19-7-17 11-25 19-8Z"/>
    <path d="M438 144c6-13 20-7 15 6 13-5 20 9 6 15 14 6 8 20-6 15 5 14-9 21-15 6-6 15-20 8-15-6-14 5-21-9-6-15-15-6-8-20 6-15-5-13 9-20 15-6Z"/>
    <path d="M246 194c6-13 20-7 15 6 13-5 20 9 6 15 14 6 8 20-6 15 5 14-9 21-15 6-6 15-20 8-15-6-14 5-21-9-6-15-15-6-8-20 6-15-5-13 9-20 15-6Z"/>
    <path d="M147 295c5-11 17-6 13 5 11-4 17 8 5 13 12 5 7 17-5 13 4 12-8 18-13 5-5 13-17 7-13-5-12 4-18-8-5-13-13-5-7-17 5-13-4-11 8-17 13-5Z"/>
  </g>
</svg>
